<svg
  xmlns="http://www.w3.org/2000/svg"
  viewBox="0 0 200 48"
  width="200"
  height="48"
  fill="none"
  aria-label="Serviform Academy"
  role="img"
>
  <!-- S mark: due archi speculari che formano la S -->
  <path
    d="M8 14 C8 9 12 6 18 6 L30 6 C33 6 35 8 35 11 C35 14 33 16 30 16 L18 16 C14 16 12 18 12 21 C12 24 14 26 18 26 L30 26 C34 26 38 29 38 33 C38 37 34 42 30 42 L16 42 C12 42 8 40 8 36"
    stroke="#E63329"
    stroke-width="4"
    stroke-linecap="round"
    fill="none"
  />
  <!-- Wordmark: SERVIFORM -->
  <text
    x="50"
    y="30"
    font-family="Arial, Helvetica, sans-serif"
    font-size="18"
    font-weight="700"
    letter-spacing="1.5"
    fill="#001830"
  >SERVIFORM</text>
  <!-- Sottotitolo: ACADEMY -->
  <text
    x="51"
    y="43"
    font-family="Arial, Helvetica, sans-serif"
    font-size="9"
    font-weight="400"
    letter-spacing="4"
    fill="#E63329"
  >ACADEMY</text>
</svg>
