<?xml version="1.0" encoding="UTF-8"?>
<svg id="Livello_1" xmlns="http://www.w3.org/2000/svg" version="1.1" viewBox="0 0 400 400">
  <!-- Generator: Adobe Illustrator 30.3.0, SVG Export Plug-In . SVG Version: 2.1.3 Build 182)  -->
  <defs>
    <style>
      .st0 {
        fill: #e41d13;
      }

      .st1 {
        fill: #9d9d9c;
      }

      .st2 {
        fill: #e63329;
      }
    </style>
  </defs>
  <g id="Livello_11" data-name="Livello_1">
    <polygon class="st1" points="246.22 6.62 199.99 218.51 153.78 6.62 246.22 6.62"/>
  </g>
  <g id="Livello_2">
    <path class="st2" d="M246.77,43.63l-16.09,88.29c26.32,14.25,44.68,46.24,44.68,83.46,0,50.46-33.74,91.37-75.36,91.37s-75.36-40.91-75.36-91.37c0-36.38,17.54-67.79,42.91-82.49l-16.32-88.7C76.65,65.4,22,133.98,22,215.38c0,98.31,79.69,178,178,178s178-79.69,178-178c0-82.11-55.62-151.2-131.23-171.74Z"/>
    <path class="st0" d="M246.77,43.63l-16.09,88.29c26.32,14.25,44.68,46.24,44.68,83.46,0,50.46-33.74,91.37-75.36,91.37s-75.36-40.91-75.36-91.37c0-36.38,17.54-67.79,42.91-82.49l-16.32-88.7C76.65,65.4,22,133.98,22,215.38c0,98.31,79.69,178,178,178s178-79.69,178-178c0-82.11-55.62-151.2-131.23-171.74Z"/>
  </g>
</svg>