<?xml version="1.0" encoding="iso-8859-1"?>
<!-- Generator: Adobe Illustrator 16.0.3, SVG Export Plug-In . SVG Version: 6.00 Build 0)  -->
<!DOCTYPE svg PUBLIC "-//W3C//DTD SVG 1.1//EN" "http://www.w3.org/Graphics/SVG/1.1/DTD/svg11.dtd">
<svg version="1.1" id="Layer_1" xmlns="http://www.w3.org/2000/svg" xmlns:xlink="http://www.w3.org/1999/xlink" x="0px" y="0px"
	 width="279.078px" height="112.5px" viewBox="0 0 279.078 112.5" enable-background="new 0 0 279.078 112.5" xml:space="preserve">
<path fill="#FFFFFF" d="M279.078,0H0v85.934h60.138C71.063,101.595,89.63,112,111.544,112s41.143-10.404,52.067-26.065h115.466V0z"
	/>
<polygon fill-rule="evenodd" clip-rule="evenodd" fill="#283B74" points="66.409,38.401 67.166,38.561 66.899,39.824 66.139,39.664 
	66.409,38.401 "/>
<rect x="108.759" y="-0.439" transform="matrix(0.7049 0.7093 -0.7093 0.7049 47.2659 -72.0701)" fill="#003875" width="2.972" height="42.415"/>
<path fill="#003875" d="M93.864,42.802c-1.829,0-4.536-1.441-4.536-4.534c0-2.5,2.035-4.534,4.536-4.534
	c2.5,0,4.534,2.034,4.534,4.534C98.398,40.768,96.364,42.802,93.864,42.802z M93.864,37.3c-0.535,0-0.969,0.435-0.969,0.968
	c0,0.897,0.958,0.967,0.969,0.967c0.534,0,0.967-0.435,0.967-0.967C94.832,37.734,94.397,37.3,93.864,37.3z"/>
<rect x="96.615" y="36.781" fill="#003875" width="42.752" height="2.972"/>
<path fill="#003875" d="M112.963,100h-2.972v-3.787c-5.813-0.174-11.596-1.456-17.089-3.844
	C81.559,87.437,72.814,78.382,68.28,66.873c-9.362-23.758,2.351-50.703,26.108-60.066c23.761-9.366,50.707,2.354,60.068,26.112
	l-2.764,1.09c-8.761-22.237-33.984-33.198-56.214-24.438c-22.235,8.762-33.196,33.979-24.434,56.212
	c4.244,10.771,12.427,19.246,23.043,23.86c5.112,2.223,10.496,3.423,15.904,3.595v-22.4H77.124v-2.973h85.767v2.973h-49.928v22.392
	c4.834-0.183,9.656-1.185,14.29-3.011l1.09,2.765c-4.987,1.965-10.179,3.037-15.38,3.222V100z"/>
<g>
	<path fill-rule="evenodd" clip-rule="evenodd" fill="#003875" d="M271.78,37.153c0-3.503-0.934-5.648-3.873-6.206v-0.096
		c5.411-0.187,7.373,1.306,7.373,7.608v8.212c0,3.41,0.466,4.993,3.548,5.883v0.09c-2.895,0.891-3.548,2.474-3.548,5.742v9.002
		c0,6.069-2.564,7.099-7.373,7.099v-0.096c3.033-0.792,3.873-2.752,3.873-6.257v-9.001c0-3.593,0.563-5.598,3.782-6.488v-0.09
		c-3.364-0.936-3.782-3.223-3.782-6.958V37.153L271.78,37.153z"/>
	<path fill-rule="evenodd" clip-rule="evenodd" fill="#003875" d="M13.32,60.978c2.938-0.362,2.81-0.197,2.81-3.263v-14.82
		c0-3.065,0.128-2.9-2.81-3.263v-0.853h14.598v5.302h-0.85c-0.325-2.434-0.981-4.251-3.33-4.251h-4.443v9.42h2.746
		c2.056,0,2.938-0.821,3.004-2.863h0.849v7.016h-0.849c-0.065-1.943-0.818-3.098-3.004-3.098h-2.746v7.445
		c0,2.802,1.274,3.031,4.213,3.031c4.739,0,4.507-1.354,6.014-4.875h0.846l-0.981,5.928H13.32V60.978L13.32,60.978z"/>
	<path fill-rule="evenodd" clip-rule="evenodd" fill="#003875" d="M37.328,57.715c0,2.964-0.166,2.869,2.612,3.263v0.856h-8.165
		v-0.856c2.773-0.394,2.613-0.298,2.613-3.263v-9.122c0-1.514-1.012-1.386-2.613-1.386v-0.853c1.796-0.069,3.985-0.464,5.485-1.386
		l0.067,0.066v2.833c1.405-1.647,3.756-2.9,6.599-2.9c3.985,0,4.768,2.404,4.768,5.832v6.915c0,2.964-0.164,2.869,2.613,3.263v0.856
		h-8.166v-0.856c2.776-0.394,2.614-0.298,2.614-3.263v-6.059c0-2.077-0.13-4.974-3.593-4.974c-4.18,0-4.834,3.623-4.834,7.019
		V57.715L37.328,57.715z"/>
	<path fill-rule="evenodd" clip-rule="evenodd" fill="#003875" d="M63.151,46.848c0.752,0.69,1.405,2.337,1.405,4.017
		c0,2.506-2.386,5.372-6.334,5.372c-0.623,0-1.08-0.035-1.338-0.067c-0.428,0.331-0.919,0.789-0.919,1.349
		c0,0.792,1.341,0.954,3.3,1.319l3.005,0.589c2.321,0.464,4.017,2.079,4.017,4.484c0,3.358-3.298,6.155-7.642,6.155
		c-4.214,0-7.708-2.17-7.708-5.793c0-0.499-0.067-1.186,0.422-1.482l3.431-1.85v-0.064c-1.469-0.197-2.384-1.018-2.091-2.5
		l3.107-2.569c-2.484-1.253-3.692-2.833-3.692-5.47c0-3.489,3.331-5.369,6.401-5.369c1.177,0,2.188,0.133,3.004,0.528
		c2.123,0.064,4.018-0.133,5.552-0.528l0.327,0.429l-0.881,1.45H63.151L63.151,46.848z M56.261,61.175
		c-1.306,0.789-2.645,1.746-2.645,3.46c0,2.437,1.861,4.281,5.223,4.281c3.005,0,4.869-1.911,4.869-3.722
		c0-2.772-2.288-3.097-4.279-3.462L56.261,61.175L56.261,61.175z M55.217,49.911c0,2.207,0.783,5.467,3.556,5.369
		c2.188-0.099,2.679-2.468,2.679-3.985c0-3.031-1.175-5.467-3.298-5.403C55.901,45.992,55.217,48.295,55.217,49.911L55.217,49.911z"
		/>
	<path fill-rule="evenodd" clip-rule="evenodd" fill="#003875" d="M75.28,39.632c-1.795,0-3.102,0.528-2.023,3.689
		c1.273,3.887,3.168,9.554,4.866,14.56c2.091-5.038,4.082-10.111,6.107-15.146c0.818-2.079-0.031-3.103-2.252-3.103v-0.853h7.052
		v0.853c-0.944,0-2.022,0.331-2.709,1.978c-2.743,6.752-5.518,13.472-8.262,20.224h-1.666c-1.994-5.696-4.213-12.054-6.206-17.654
		c-1.209-3.524-2.222-4.547-3.792-4.547v-0.853h8.886V39.632L75.28,39.632z"/>
	<path fill-rule="evenodd" clip-rule="evenodd" fill="#003875" d="M93.689,45.035v12.68c0,2.964-0.163,2.869,2.614,3.263v0.856
		h-8.165v-0.856c2.776-0.394,2.612-0.298,2.612-3.263v-9.122c0-1.514-1.013-1.386-2.612-1.386v-0.853
		c1.795-0.069,3.984-0.464,5.486-1.386L93.689,45.035L93.689,45.035z"/>
	<path fill-rule="evenodd" clip-rule="evenodd" fill="#003875" d="M101.623,52.744c0,3.756,1.731,7.61,6.401,7.61
		c1.796,0,2.872-0.794,3.66-1.189l0.52,1.024l-4.276,2.039h-1.013c-0.816,0-3.562,0.429-6.207-2.503
		c-0.977-1.125-2.188-3.721-2.188-6.189c0-3.854,2.058-8.567,7.612-8.567c3.689,0,6.072,2.703,6.072,6.851v0.925H101.623
		L101.623,52.744z M107.73,51.59c0.72,0,1.633-0.461,1.633-1.908c0-2.109-1.599-3.559-3.429-3.559c-2.188,0-4.312,1.316-4.312,5.467
		H107.73L107.73,51.59z"/>
	<path fill-rule="evenodd" clip-rule="evenodd" fill="#003875" d="M113.608,45.363h8.298v0.858c-2.155,0-3.331,0.133-2.55,3.028
		l2.158,8.338h0.065l4.799-12.224h1.472l4.507,12.32h0.065l2.515-8.037c0.946-3.196-0.917-3.425-2.287-3.425v-0.858h6.599v0.858
		c-1.437,0-1.994,0.89-2.679,2.932l-4.247,12.68h-1.339l-4.702-12.417l-4.934,12.417h-1.338l-3.726-12.782
		c-0.489-1.743-1.241-2.831-2.677-2.831V45.363L113.608,45.363z"/>
	<path fill-rule="evenodd" clip-rule="evenodd" fill="#003875" d="M160.374,43.684c-0.263-2.301-1.504-4.148-4.115-4.148
		c-1.893,0-3.596,0.986-3.596,3.423c0,2.308,2.289,3.689,5.555,6.163c3.463,2.602,4.571,4.281,4.571,7.016
		c0,3.918-3.985,6.091-7.903,6.091c-2.092,0-3.889-0.395-5.586-1.053c-0.129-0.069-0.227-0.197-0.227-0.461v-4.742h0.85
		c0.357,3.652,2.74,5.107,5.258,5.107c2.317,0,4.213-1.781,4.213-4.185c0-2.143-1.142-3.886-6.043-7.149
		c-1.764-1.187-3.952-2.469-3.952-6.062c0-2.962,3.265-5.299,7.021-5.299c1.404,0,3.269,0.163,4.574,0.624
		c0.197,0.064,0.23,0.197,0.23,0.363v4.313H160.374L160.374,43.684z"/>
	<path fill-rule="evenodd" clip-rule="evenodd" fill="#003875" d="M177.235,48.855c0.979-2.37-0.816-2.633-2.514-2.633v-0.858h6.763
		v0.858c-1.603,0-2.222,1.615-2.845,2.964l-8.688,18.777c-0.619,1.279-1.076,2.104-2.352,2.104h-2.418
		c-0.26,0-0.358-0.328-0.358-0.627v-0.555c0-0.267,0-0.527,0.392-0.664l1.926-0.689c1.277-0.49,2.191-1.254,2.711-2.336l1.702-3.593
		l-5.488-12.811c-0.884-2.01-1.306-2.569-2.741-2.569v-0.858h8.521v0.858c-1.732,0-3.461-0.264-2.612,2.042l3.92,9.751
		L177.235,48.855L177.235,48.855z"/>
	<path fill-rule="evenodd" clip-rule="evenodd" fill="#003875" d="M183.182,57.651h0.849c-0.032,2.303,1.666,3.428,3.562,3.428
		c1.891,0,3.004-1.456,3.004-2.836c0-2.138-1.699-2.9-3.661-4.313c-2.644-1.946-3.722-2.471-3.722-4.646
		c0-2.767,2.546-4.315,5.224-4.315c1.046,0,2.354,0.066,3.856,0.56v3.295h-0.852c-0.094-1.12-1.075-2.7-2.938-2.7
		c-1.373,0-2.515,0.824-2.515,2.108c0,1.583,1.665,2.437,4.051,4.147c3.069,2.175,3.462,3.396,3.462,4.91
		c0,3.425-3.07,4.939-5.91,4.939c-1.797,0-3.203-0.296-4.41-0.888V57.651L183.182,57.651z"/>
	<path fill-rule="evenodd" clip-rule="evenodd" fill="#003875" d="M206.209,47.011l-1.339,0.661h-3.628v8.664
		c0,1.285,0.065,3.913,2.223,3.913c0.883,0,1.731-0.059,2.516-0.389l0.229,0.855l-3.789,1.514c-2.287,0-4.117-0.696-4.117-5.206
		v-9.351h-2.609v-1.514h2.609v-3.46c0.59-0.626,1.242-1.216,2.06-1.845h0.88v5.305h4.967V47.011L206.209,47.011z"/>
	<path fill-rule="evenodd" clip-rule="evenodd" fill="#003875" d="M211.206,52.744c0,3.756,1.73,7.61,6.401,7.61
		c1.796,0,2.875-0.794,3.659-1.189l0.521,1.024l-4.277,2.039h-1.014c-0.815,0-3.561,0.429-6.203-2.503
		c-0.984-1.125-2.191-3.721-2.191-6.189c0-3.854,2.059-8.567,7.612-8.567c3.688,0,6.073,2.703,6.073,6.851v0.925H211.206
		L211.206,52.744z M217.313,51.59c0.722,0,1.632-0.461,1.632-1.908c0-2.109-1.598-3.559-3.43-3.559c-2.188,0-4.31,1.316-4.31,5.467
		H217.313L217.313,51.59z"/>
	<path fill-rule="evenodd" clip-rule="evenodd" fill="#003875" d="M229.56,57.715c0,2.964-0.162,2.869,2.617,3.263v0.856h-8.171
		v-0.856c2.778-0.394,2.616-0.298,2.616-3.263v-9.122c0-1.514-1.015-1.386-2.616-1.386v-0.853c1.797-0.069,3.985-0.464,5.491-1.386
		l0.063,0.066v2.833h0.064c1.046-1.647,3.234-2.9,5.847-2.9c2.874,0,3.559,1.317,4.313,2.9c1.338-1.647,3.332-2.9,5.944-2.9
		c3.657,0,4.605,2.437,4.605,5.864v6.882c0,2.964-0.165,2.869,2.612,3.263v0.856h-8.167v-0.856c2.777-0.394,2.617-0.298,2.617-3.263
		v-6.027c0-2.471-0.165-5.006-3.235-5.006c-2.81,0-4.217,1.679-4.217,7.216v3.817c0,2.964-0.16,2.869,2.617,3.263v0.856h-8.167
		v-0.856c2.777-0.394,2.612-0.298,2.612-3.263v-6.027c0-2.471-0.16-5.006-3.231-5.006c-2.682,0-4.216,1.416-4.216,7.216V57.715
		L229.56,57.715z"/>
	<path fill-rule="evenodd" clip-rule="evenodd" fill="#003875" d="M255.624,57.651h0.848c-0.032,2.303,1.669,3.428,3.562,3.428
		c1.897,0,3.007-1.456,3.007-2.836c0-2.138-1.701-2.9-3.663-4.313c-2.645-1.946-3.721-2.471-3.721-4.646
		c0-2.767,2.548-4.315,5.232-4.315c1.042,0,2.343,0.066,3.852,0.56v3.295h-0.851c-0.096-1.12-1.076-2.7-2.939-2.7
		c-1.376,0-2.517,0.824-2.517,2.108c0,1.583,1.669,2.437,4.052,4.147c3.07,2.175,3.46,3.396,3.46,4.91
		c0,3.425-3.068,4.939-5.912,4.939c-1.797,0-3.199-0.296-4.409-0.888V57.651L255.624,57.651z"/>
	<path fill-rule="evenodd" clip-rule="evenodd" fill="#003875" d="M7.548,68.026c0,3.5,0.933,5.646,3.876,6.211v0.091
		c-5.417,0.184-7.376-1.309-7.376-7.607v-8.213c0-3.409-0.468-4.996-3.548-5.88v-0.096c2.894-0.885,3.548-2.476,3.548-5.739v-9.004
		c0-6.07,2.567-7.096,7.376-7.096v0.09c-3.038,0.797-3.876,2.756-3.876,6.256v9.007c0,3.593-0.56,5.601-3.781,6.485v0.096
		c3.361,0.93,3.781,3.217,3.781,6.955V68.026L7.548,68.026z"/>
	<polygon fill-rule="evenodd" clip-rule="evenodd" fill="#003875" points="128.145,93.962 134.673,88.194 126.78,89.618 
		128.145,93.962 	"/>
	<polygon fill-rule="evenodd" clip-rule="evenodd" fill="#003875" points="125.47,9.417 130.987,0 121.378,5.656 125.47,9.417 	"/>
	<path fill-rule="evenodd" clip-rule="evenodd" fill="#003875" d="M177.315,70.544h-1.06l-0.42-1.095h-1.927l-0.398,1.095h-1.032
		l1.878-4.818h1.029L177.315,70.544L177.315,70.544z M175.522,68.639l-0.664-1.791l-0.65,1.791H175.522L175.522,68.639z
		 M179.205,68.978l0.948-0.094c0.056,0.32,0.17,0.555,0.345,0.704c0.176,0.146,0.409,0.222,0.705,0.222
		c0.314,0,0.55-0.067,0.709-0.201c0.159-0.133,0.238-0.287,0.238-0.463c0-0.117-0.033-0.211-0.101-0.293
		c-0.066-0.08-0.184-0.15-0.35-0.209c-0.115-0.039-0.375-0.109-0.779-0.207c-0.523-0.134-0.889-0.288-1.098-0.48
		c-0.297-0.264-0.443-0.586-0.443-0.971c0-0.244,0.069-0.474,0.208-0.688c0.14-0.213,0.341-0.375,0.601-0.487
		c0.264-0.112,0.578-0.168,0.947-0.168c0.608,0,1.062,0.134,1.368,0.399c0.306,0.264,0.465,0.619,0.482,1.062l-0.974,0.042
		c-0.042-0.248-0.13-0.426-0.269-0.533c-0.136-0.111-0.341-0.164-0.616-0.164c-0.282,0-0.504,0.059-0.663,0.176
		c-0.104,0.074-0.155,0.173-0.155,0.298c0,0.112,0.049,0.211,0.145,0.294c0.123,0.101,0.421,0.21,0.895,0.319
		c0.473,0.112,0.823,0.229,1.049,0.347c0.228,0.123,0.404,0.282,0.534,0.49c0.128,0.208,0.192,0.464,0.192,0.768
		c0,0.277-0.076,0.539-0.229,0.775c-0.155,0.243-0.37,0.422-0.651,0.541c-0.281,0.115-0.631,0.174-1.049,0.174
		c-0.609,0-1.078-0.141-1.404-0.421C179.461,69.929,179.267,69.516,179.205,68.978L179.205,68.978z M183.913,70.544v-4.818h0.973
		v4.818H183.913L183.913,70.544z M185.814,70.544v-4.818h2.05c0.516,0,0.889,0.043,1.123,0.131c0.232,0.084,0.42,0.239,0.561,0.461
		c0.141,0.221,0.211,0.475,0.211,0.76c0,0.361-0.107,0.66-0.318,0.895c-0.213,0.235-0.531,0.385-0.955,0.443
		c0.211,0.128,0.385,0.262,0.522,0.404c0.136,0.15,0.319,0.411,0.554,0.784l0.588,0.94h-1.163l-0.704-1.047
		c-0.25-0.376-0.42-0.613-0.513-0.709s-0.188-0.166-0.293-0.203c-0.103-0.034-0.265-0.053-0.491-0.053h-0.195v2.012H185.814
		L185.814,70.544z M186.79,67.765h0.719c0.468,0,0.758-0.021,0.875-0.059c0.116-0.04,0.207-0.107,0.273-0.205
		c0.065-0.096,0.099-0.217,0.099-0.36c0-0.165-0.044-0.293-0.13-0.395c-0.086-0.099-0.209-0.163-0.367-0.189
		c-0.078-0.008-0.316-0.016-0.711-0.016h-0.758V67.765L186.79,67.765z M190.662,70.544v-4.818h1.456l0.875,3.286l0.865-3.286h1.459
		v4.818h-0.904v-3.793l-0.956,3.793h-0.938l-0.951-3.793v3.793H190.662L190.662,70.544z M200.63,70.544h-1.061l-0.42-1.095h-1.927
		l-0.396,1.095h-1.032l1.876-4.818h1.029L200.63,70.544L200.63,70.544z M198.838,68.639l-0.664-1.791l-0.65,1.791H198.838
		L198.838,68.639z M205.007,68.773v-0.811h2.1v1.919c-0.205,0.197-0.501,0.37-0.888,0.522c-0.387,0.149-0.778,0.225-1.173,0.225
		c-0.507,0-0.945-0.107-1.319-0.318c-0.375-0.213-0.657-0.514-0.845-0.908c-0.188-0.393-0.284-0.821-0.284-1.282
		c0-0.504,0.106-0.949,0.315-1.341c0.211-0.389,0.519-0.688,0.925-0.896c0.31-0.159,0.693-0.239,1.153-0.239
		c0.6,0,1.066,0.126,1.402,0.378c0.336,0.251,0.553,0.598,0.648,1.04l-0.965,0.182c-0.067-0.237-0.197-0.424-0.384-0.563
		c-0.188-0.136-0.421-0.206-0.702-0.206c-0.425,0-0.764,0.137-1.015,0.406c-0.25,0.269-0.375,0.672-0.375,1.199
		c0,0.57,0.128,1.002,0.382,1.287s0.587,0.43,0.998,0.43c0.204,0,0.408-0.041,0.613-0.12c0.205-0.077,0.382-0.179,0.528-0.29v-0.613
		H205.007L205.007,68.773z M208.006,70.544v-4.818h2.049c0.516,0,0.889,0.043,1.122,0.131c0.233,0.084,0.421,0.239,0.56,0.461
		c0.142,0.221,0.211,0.475,0.211,0.76c0,0.361-0.105,0.66-0.318,0.895c-0.212,0.235-0.531,0.385-0.953,0.443
		c0.21,0.128,0.385,0.262,0.522,0.404c0.136,0.15,0.321,0.411,0.552,0.784l0.59,0.94h-1.164l-0.704-1.047
		c-0.249-0.376-0.42-0.613-0.513-0.709s-0.188-0.166-0.294-0.203c-0.101-0.034-0.264-0.053-0.489-0.053h-0.195v2.012H208.006
		L208.006,70.544z M208.981,67.765h0.718c0.467,0,0.76-0.021,0.876-0.059c0.116-0.04,0.207-0.107,0.273-0.205
		c0.063-0.096,0.099-0.217,0.099-0.36c0-0.165-0.044-0.293-0.131-0.395c-0.085-0.099-0.208-0.163-0.366-0.189
		c-0.079-0.008-0.314-0.016-0.712-0.016h-0.757V67.765L208.981,67.765z M212.668,68.165c0-0.49,0.073-0.901,0.22-1.237
		c0.111-0.244,0.26-0.466,0.451-0.66c0.188-0.192,0.396-0.336,0.621-0.432c0.301-0.129,0.646-0.192,1.039-0.192
		c0.711,0,1.278,0.222,1.705,0.661c0.426,0.442,0.638,1.053,0.638,1.84c0,0.777-0.212,1.385-0.633,1.822
		c-0.424,0.44-0.988,0.662-1.696,0.662c-0.717,0-1.288-0.219-1.71-0.656C212.879,69.535,212.668,68.933,212.668,68.165
		L212.668,68.165z M213.67,68.132c0,0.547,0.127,0.96,0.379,1.242c0.252,0.283,0.572,0.422,0.96,0.422s0.706-0.139,0.955-0.422
		c0.248-0.277,0.372-0.695,0.372-1.255c0-0.552-0.121-0.966-0.361-1.237c-0.242-0.271-0.564-0.408-0.966-0.408
		s-0.724,0.139-0.971,0.416C213.794,67.163,213.67,67.578,213.67,68.132L213.67,68.132z M218.097,65.726h0.973v2.609
		c0,0.416,0.013,0.682,0.036,0.805c0.041,0.197,0.142,0.357,0.297,0.475c0.157,0.123,0.372,0.182,0.643,0.182
		c0.277,0,0.485-0.059,0.625-0.171c0.141-0.112,0.225-0.251,0.254-0.416c0.027-0.163,0.042-0.437,0.042-0.818v-2.665h0.972v2.529
		c0,0.581-0.025,0.988-0.078,1.227c-0.052,0.24-0.148,0.441-0.291,0.607c-0.141,0.162-0.33,0.293-0.566,0.395
		c-0.235,0.096-0.546,0.145-0.928,0.145c-0.46,0-0.809-0.055-1.046-0.16c-0.238-0.107-0.427-0.246-0.563-0.414
		c-0.138-0.17-0.229-0.349-0.272-0.535c-0.063-0.275-0.096-0.683-0.096-1.224V65.726L218.097,65.726z M222.966,70.544v-4.818h1.561
		c0.59,0,0.978,0.023,1.156,0.072c0.277,0.074,0.51,0.229,0.694,0.471c0.188,0.243,0.28,0.558,0.28,0.939
		c0,0.295-0.054,0.546-0.161,0.746c-0.108,0.202-0.244,0.359-0.409,0.477c-0.167,0.112-0.335,0.189-0.505,0.227
		c-0.232,0.045-0.568,0.066-1.01,0.066h-0.634v1.82H222.966L222.966,70.544z M223.939,66.542v1.367h0.531
		c0.384,0,0.642-0.026,0.771-0.075c0.13-0.053,0.229-0.13,0.304-0.239c0.072-0.106,0.109-0.229,0.109-0.373
		c0-0.173-0.052-0.319-0.154-0.435s-0.232-0.184-0.391-0.213c-0.116-0.024-0.351-0.032-0.701-0.032H223.939L223.939,66.542z
		 M232.289,68.773l0.943,0.298c-0.144,0.528-0.384,0.917-0.72,1.173c-0.335,0.256-0.765,0.385-1.281,0.385
		c-0.641,0-1.167-0.219-1.578-0.656s-0.617-1.037-0.617-1.791c0-0.806,0.206-1.43,0.621-1.871c0.414-0.443,0.958-0.667,1.635-0.667
		c0.587,0,1.066,0.176,1.435,0.522c0.221,0.208,0.384,0.504,0.496,0.891l-0.966,0.229c-0.056-0.25-0.176-0.447-0.356-0.592
		c-0.182-0.144-0.4-0.219-0.659-0.219c-0.356,0-0.647,0.129-0.87,0.385s-0.333,0.672-0.333,1.247c0,0.608,0.109,1.045,0.329,1.301
		c0.219,0.261,0.504,0.39,0.854,0.39c0.261,0,0.482-0.083,0.669-0.246C232.076,69.386,232.208,69.125,232.289,68.773L232.289,68.773
		z M233.873,68.165c0-0.49,0.071-0.901,0.218-1.237c0.112-0.244,0.262-0.466,0.451-0.66c0.188-0.192,0.396-0.336,0.621-0.432
		c0.301-0.129,0.645-0.192,1.039-0.192c0.712,0,1.279,0.222,1.706,0.661c0.427,0.442,0.64,1.053,0.64,1.84
		c0,0.777-0.213,1.385-0.634,1.822c-0.427,0.44-0.992,0.662-1.698,0.662c-0.717,0-1.288-0.219-1.709-0.656
		C234.083,69.535,233.873,68.933,233.873,68.165L233.873,68.165z M234.875,68.132c0,0.547,0.125,0.96,0.378,1.242
		c0.251,0.283,0.571,0.422,0.96,0.422c0.387,0,0.706-0.139,0.954-0.422c0.248-0.277,0.373-0.695,0.373-1.255
		c0-0.552-0.122-0.966-0.362-1.237c-0.242-0.271-0.564-0.408-0.965-0.408c-0.399,0-0.725,0.139-0.97,0.416
		C234.997,67.163,234.875,67.578,234.875,68.132L234.875,68.132z M239.292,70.544v-4.818h1.458l0.874,3.286l0.864-3.286h1.46v4.818
		h-0.906v-3.793l-0.957,3.793h-0.936l-0.954-3.793v3.793H239.292L239.292,70.544z M244.913,70.544v-4.818h1.563
		c0.592,0,0.976,0.023,1.157,0.072c0.276,0.074,0.509,0.229,0.695,0.471c0.184,0.243,0.28,0.558,0.28,0.939
		c0,0.295-0.054,0.546-0.163,0.746c-0.106,0.202-0.242,0.359-0.407,0.477c-0.168,0.112-0.336,0.189-0.507,0.227
		c-0.229,0.045-0.57,0.066-1.011,0.066h-0.634v1.82H244.913L244.913,70.544z M245.886,66.542v1.367h0.533
		c0.386,0,0.642-0.026,0.771-0.075c0.128-0.053,0.229-0.13,0.304-0.239c0.074-0.106,0.111-0.229,0.111-0.373
		c0-0.173-0.053-0.319-0.157-0.435c-0.104-0.115-0.231-0.184-0.392-0.213c-0.114-0.024-0.347-0.032-0.698-0.032H245.886
		L245.886,66.542z M253.251,70.544h-1.059l-0.419-1.095h-1.93l-0.395,1.095h-1.034l1.877-4.818h1.028L253.251,70.544L253.251,70.544
		z M251.459,68.639l-0.663-1.791l-0.65,1.791H251.459L251.459,68.639z M253.776,70.544v-4.818h0.946l1.976,3.217v-3.217h0.903v4.818
		h-0.979l-1.94-3.143v3.143H253.776L253.776,70.544z M259.896,70.544v-2.027l-1.767-2.791h1.141l1.136,1.906l1.111-1.906h1.122
		l-1.772,2.796v2.022H259.896L259.896,70.544z"/>
</g>
<path fill="#CCCCCC" d="M278.578,85.427v0.007H163.351l-0.149,0.214c-11.292,16.188-30.603,25.852-51.657,25.852
	s-39.705-9.664-50.997-25.852l-0.149-0.214H0.5v-0.007H0v1.007h59.877c11.499,16.327,30.379,26.065,51.667,26.065
	s40.828-9.738,52.327-26.065h115.206v-1.007H278.578z"/>
</svg>
