<?xml version="1.0" encoding="UTF-8"?>
<svg id="Livello_1" data-name="Livello 1" xmlns="http://www.w3.org/2000/svg" viewBox="0 0 485 560.02">
  <defs>
    <style>
      .cls-1 {
        fill: #067db8;
      }
    </style>
  </defs>
  <path class="cls-1" d="M60.62,174.99l114.42-66.06,6.82-3.94,60.62-35v-29.97s0-40.03,0-40.03l-60.62,35-67.44,38.93L0,139.99v132.12s0,77.87,0,77.87v70s34.67-20.02,34.67-20.02l25.95-14.98v-70s0-7.87,0-7.87v-132.12h0ZM242.48,560.02l60.62-35v-2.74s0-67.26,0-67.26v-2.76s0-67.26,0-67.26v-70.02s60.64-35.01,60.64-35.01l60.64-35.01v70.02s0,70.02,0,70.02l-60.64,35.01h-.02s0,70.01,0,70.01l121.28-70.02V139.97s-242.52,140.02-242.52,140.02v280.04h0ZM121.24,342.11v-132.12s114.42-66.06,114.42-66.06l128.1-73.96v70s-67.48,38.96-67.48,38.96l-114.42,66.06v132.12s0,77.91,0,77.91l-60.62,35v-147.91h0Z"/>
</svg>