<?xml version="1.0" encoding="UTF-8"?>
<svg id="Livello_1" data-name="Livello 1" xmlns="http://www.w3.org/2000/svg" viewBox="0 0 836.22 177.36">
  <defs>
    <style>
      .cls-1 {
        fill: #211d1c;
      }

      .cls-2 {
        fill: #067db8;
      }
    </style>
  </defs>
  <path class="cls-1" d="M195.2,133.87V42.88h43.12c13.45,0,20.18,6.73,20.18,20.18v17.14c0,13.45-6.73,20.18-20.18,20.18h-32.04v33.5h-11.08ZM206.28,90.36h32.18c5.98,0,8.97-2.99,8.97-8.97v-19.52c0-5.98-2.99-8.97-8.97-8.97h-32.18v37.45Z"/>
  <path class="cls-1" d="M277.62,133.87V42.88h43.12c13.45,0,20.18,6.73,20.18,20.18v14.51c0,11.43-4.88,17.93-14.64,19.52l17.28,34.15-1.45,2.64h-9.36l-18.33-36.13h-25.71v36.13h-11.08ZM288.7,87.72h32.18c5.98,0,8.97-2.99,8.97-8.97v-16.88c0-5.98-2.99-8.97-8.97-8.97h-32.18v34.81Z"/>
  <path class="cls-1" d="M360.04,113.7v-50.64c0-13.45,6.73-20.18,20.18-20.18h30.86c13.45,0,20.18,6.73,20.18,20.18v50.64c0,13.45-6.73,20.18-20.18,20.18h-30.86c-13.45,0-20.18-6.73-20.18-20.18ZM371.12,114.88c0,5.98,2.99,8.97,8.97,8.97h31.12c5.98,0,8.97-2.99,8.97-8.97v-53.01c0-5.98-2.99-8.97-8.97-8.97h-31.12c-5.98,0-8.97,2.99-8.97,8.97v53.01Z"/>
  <path class="cls-1" d="M449.05,113.7v-14.11h11.08v15.3c0,5.98,2.99,8.97,8.97,8.97h20.57c5.98,0,8.97-2.99,8.97-8.97v-61.98h-29.8v-10.02h40.88v70.81c0,13.45-6.73,20.18-20.18,20.18h-20.31c-13.45,0-20.18-6.73-20.18-20.18Z"/>
  <path class="cls-1" d="M532,133.87V42.88h59.34v10.02h-48.26v28.22h44.31v10.02h-44.31v32.7h48.26v10.02h-59.34Z"/>
  <path class="cls-1" d="M607.82,113.7v-50.64c0-13.45,6.73-20.18,20.18-20.18h37.19l5.93,4.62v5.41h-43.25c-5.98,0-8.97,2.99-8.97,8.97v53.01c0,5.98,2.99,8.97,8.97,8.97h43.25v5.41l-5.93,4.62h-37.19c-13.45,0-20.18-6.73-20.18-20.18Z"/>
  <path class="cls-1" d="M680.22,52.9v-10.02h71.74v10.02h-30.33v80.97h-11.08V52.9h-30.33Z"/>
  <path class="cls-1" d="M765.01,113.7v-50.64c0-13.45,6.73-20.18,20.18-20.18h30.86c13.45,0,20.18,6.73,20.18,20.18v50.64c0,13.45-6.73,20.18-20.18,20.18h-30.86c-13.45,0-20.18-6.73-20.18-20.18ZM776.09,114.88c0,5.98,2.99,8.97,8.97,8.97h31.12c5.98,0,8.97-2.99,8.97-8.97v-53.01c0-5.98-2.99-8.97-8.97-8.97h-31.12c-5.98,0-8.97,2.99-8.97,8.97v53.01Z"/>
  <path class="cls-2" d="M19.2,55.42l36.24-20.92,2.16-1.25,19.2-11.08v-9.49s0-12.68,0-12.68l-19.2,11.08-21.36,12.33L0,44.33v41.84s0,24.66,0,24.66v22.17s10.98-6.34,10.98-6.34l8.22-4.75v-22.17s0-2.49,0-2.49v-41.84h0ZM76.79,177.36l19.2-11.08v-.87s0-21.3,0-21.3v-.87s0-21.3,0-21.3v-22.17s19.2-11.09,19.2-11.09l19.2-11.09v22.17s0,22.17,0,22.17l-19.2,11.09h0s0,22.17,0,22.17l38.41-22.17V44.33s-76.8,44.34-76.8,44.34v88.69h0ZM38.4,108.35v-41.84s36.24-20.92,36.24-20.92l40.57-23.42v22.17s-21.37,12.34-21.37,12.34l-36.24,20.92v41.84s0,24.68,0,24.68l-19.2,11.08v-46.84h0Z"/>
</svg>