<?xml version="1.0" encoding="utf-8"?>
<!-- Generator: Adobe Illustrator 16.0.0, SVG Export Plug-In . SVG Version: 6.00 Build 0)  -->
<!DOCTYPE svg PUBLIC "-//W3C//DTD SVG 1.1//EN" "http://www.w3.org/Graphics/SVG/1.1/DTD/svg11.dtd">
<svg version="1.1" id="Livello_1" xmlns="http://www.w3.org/2000/svg" xmlns:xlink="http://www.w3.org/1999/xlink" x="0px" y="0px"
	 width="612px" height="792px" viewBox="0 0 612 792" enable-background="new 0 0 612 792" xml:space="preserve">
<g>
	<path fill="#E63329" d="M63.793,314.865c2.447,9.853,10.912,13.82,20.434,13.82c9.39,0,20.235-4.364,20.235-15.274
		c0-4.96-2.314-9.192-6.745-11.573c-3.967-2.05-8.53-2.778-12.829-3.637c-1.719-0.397-5.025-0.86-5.025-3.24
		c0-2.38,2.645-2.91,4.496-2.91c3.505,0,6.018,1.19,7.341,4.563l11.505-3.504C100.428,285.24,92.824,282,84.955,282
		c-4.496,0-9.324,0.86-13.027,3.439c-3.636,2.579-5.819,6.943-5.819,11.374c0,10.778,10.117,13.093,18.647,14.747
		c2.05,0.396,5.555,0.925,5.555,3.703c0,2.512-3.571,2.776-5.356,2.776c-4.034,0-7.075-1.455-8.266-5.488L63.793,314.865
		L63.793,314.865z"/>
	<polygon fill="#E63329" points="217.136,317.18 196.702,317.18 196.702,309.84 213.234,309.84 213.234,299.723 196.702,299.723 
		196.702,293.109 217.136,293.109 217.136,282.661 183.081,282.661 183.081,328.024 217.136,328.024 217.136,317.18 	"/>
	<path fill-rule="evenodd" clip-rule="evenodd" fill="#E63329" d="M309.77,310.7h4.365l6.611,17.325h15.475l-8.201-19.772
		c5.357-2.446,8.002-6.018,8.002-11.969c0-4.431-1.785-8.464-5.555-10.845c-3.373-2.248-7.736-2.778-11.705-2.778h-23.078v45.363
		h14.086V310.7L309.77,310.7z M309.77,292.316h5.621c1.322,0,2.777,0,3.967,0.594c1.389,0.728,2.182,2.183,2.182,3.703
		c0,3.902-3.637,4.365-6.678,4.365h-5.092V292.316L309.77,292.316z"/>
	<polygon fill="#E63329" points="452.533,282.661 441.094,282.661 432.695,311.691 424.232,282.661 409.617,282.661 
		424.232,328.024 438.449,328.024 452.533,282.661 	"/>
	<polygon fill="#E63329" points="543.385,282.661 529.367,282.661 529.367,328.024 543.385,328.024 543.385,282.661 	"/>
	<polygon fill="#9D9D9C" points="104.331,506.459 63.011,506.459 63.011,377.828 166.515,377.828 166.517,405.977 104.331,405.977 
		104.331,430.642 157.572,430.642 157.572,455.815 104.331,455.815 104.331,506.459 	"/>
	<path fill="#9D9D9C" d="M339.838,377.789c26.881,0,49.654,11.107,49.654,40.423c0,17.585-6.961,24.988-23.09,30.236v0.923
		c2.213,1.697,4.904,3.552,7.273,6.945l34.406,50.143h-52.109l-25.305-49.682l-1.865,0.002v49.68h-41.305L339.838,377.789
		L339.838,377.789z"/>
	<path fill="#FFFFFF" d="M329.879,429.316h3c7.117,0,14.232-1.08,14.232-9.718c0-8.949-6.482-10.03-13.916-10.03h-3.316V429.316
		L329.879,429.316z"/>
	<path fill="#9D9D9C" d="M365.447,463.821h-36.633v42.596h-41.317V377.786h77.522C426.359,377.786,426.359,463.821,365.447,463.821
		L365.447,463.821z"/>
	<path fill="#FFFFFF" d="M355.223,407.599h-26.408v29.394h26.408C373.967,436.992,373.967,407.599,355.223,407.599L355.223,407.599z
		"/>
	<polygon fill="#9D9D9C" points="404.771,377.896 449.473,377.896 476.027,426.708 502.756,377.896 547.459,377.896 
		547.459,506.459 507.408,506.459 507.408,440.116 475.936,506.459 444.822,440.116 444.822,506.459 404.771,506.459 
		404.771,377.896 	"/>
	<path fill="#E63329" d="M152.572,442.163c0-38.206,30.971-69.178,69.177-69.178s69.177,30.972,69.177,69.178
		s-30.971,69.178-69.177,69.178S152.572,480.369,152.572,442.163L152.572,442.163z"/>
	<path fill="#FFFFFF" d="M192.463,442.163c0-19.612,13.112-35.511,29.286-35.511c16.175,0,29.286,15.898,29.286,35.511
		s-13.111,35.511-29.286,35.511C205.575,477.674,192.463,461.775,192.463,442.163L192.463,442.163z"/>
	<polygon fill="#9D9D9C" stroke="#FFFFFF" stroke-width="7.6494" stroke-miterlimit="3.8637" points="239.306,361.033 
		221.342,452.416 203.381,361.033 239.306,361.033 	"/>
	<polygon fill="#9D9D9C" points="239.306,361.033 221.342,452.416 203.381,361.033 63,361.033 63,330.304 547.467,330.304 
		547.467,361.033 239.306,361.033 	"/>
	<path fill-rule="evenodd" clip-rule="evenodd" fill="#FFFFFF" d="M527.762,346.478h2.756l1.838,4.493h2.555l-2.094-4.903
		c0.561-0.254,2.094-0.868,2.094-3.012c0-3.37-3.627-3.37-4.289-3.37h-5.26v11.285h2.4V346.478L527.762,346.478z M527.762,341.524
		h2.705c1.48,0,1.941,0.816,1.941,1.48c0,1.379-1.328,1.583-2.146,1.583h-2.5V341.524L527.762,341.524z M519.283,345.354
		c0,5.77,4.699,10.519,10.52,10.519s10.52-4.749,10.52-10.519c0-5.923-4.801-10.57-10.52-10.57
		C524.033,334.784,519.283,339.431,519.283,345.354L519.283,345.354z M521.174,345.354c0-4.851,3.932-8.68,8.629-8.68
		c4.75,0,8.629,3.829,8.629,8.68c0,4.75-3.879,8.629-8.629,8.629C525.055,353.982,521.174,350.103,521.174,345.354L521.174,345.354z
		"/>
</g>
</svg>
